<svg id="Layer_1" data-name="Layer 1" xmlns="http://www.w3.org/2000/svg" viewBox="0 0 500 500"><defs><style>.cls-1{fill:#ed1a3b;}</style></defs><title>Absa logo__Passion_CMYK_SVG</title><path class="cls-1" d="M414.48,190.11a175.74,175.74,0,0,1,0,119.78l23.5,8.55a200.85,200.85,0,0,0,0-136.88ZM68.7,334.56a200.09,200.09,0,0,0,362.6,0L408.63,324a175.06,175.06,0,0,1-317.26,0ZM85.52,190.11,62,181.56a200.85,200.85,0,0,0,0,136.88l23.5-8.55a175.74,175.74,0,0,1,0-119.78M431.3,165.44a200.09,200.09,0,0,0-362.6,0L91.37,176a175.06,175.06,0,0,1,317.26,0Z"/><path class="cls-1" d="M211.67,272.12A48.42,48.42,0,0,1,200,270.61V229.42a51,51,0,0,1,11.67-1.54c11.36,0,16.82,5.15,16.82,22.12s-5.46,22.12-16.82,22.12M215,210a73.82,73.82,0,0,0-15,1.88V170l-20.91,2.27V284.7c8.64,2.72,19.85,5.3,30.91,5.3,25.15,0,40-8.49,40-40s-14.85-40-35-40"/><path class="cls-1" d="M295.86,240.76c-8.94-.15-14.55-.31-14.55-5.15,0-6.37,3.79-7.73,15.3-7.73a112.31,112.31,0,0,1,23,2.88L318,213.49A85.59,85.59,0,0,0,295.1,210c-25.15,0-34.85,9.09-34.85,26.21,0,16.52,10.15,20.76,27.27,21.06,11.06.15,16.82-.15,16.82,7.12,0,6.37-5,7.73-15.76,7.73a86.08,86.08,0,0,1-26.66-3.79l1.66,17.28c8,2.87,15.61,4.39,26.67,4.39,26.82,0,35.15-9.09,35.15-25.45,0-20.61-13.48-23.49-29.54-23.79"/><path class="cls-1" d="M144.09,271.52a62,62,0,0,1-10.15,1.06c-9.09,0-12.88-2.88-12.88-9.1,0-6.51,3.64-7.57,11.21-8l11.82-.75Zm-13-61.52a86.83,86.83,0,0,0-23.64,3.48l-1.66,17.28a120.7,120.7,0,0,1,23-2.88c10.91,0,15.3.91,15.3,9.7V240l-14.55.76c-16.06.91-29.54,3.63-29.54,23.79,0,16.36,8.33,25.45,33.48,25.45,11.67,0,22.88-2.58,31.52-5.3V236.21c0-17.12-9.55-26.21-33.94-26.21"/><path class="cls-1" d="M379.09,271.52a62,62,0,0,1-10.15,1.06c-9.09,0-12.88-2.88-12.88-9.1,0-6.51,3.64-7.57,11.21-8l11.82-.75Zm-13-61.52a86.82,86.82,0,0,0-23.63,3.48l-1.67,17.28a120.8,120.8,0,0,1,23-2.88c10.91,0,15.3.91,15.3,9.7V240l-14.54.76c-16.06.91-29.55,3.18-29.55,23.79,0,16.36,8.33,25.45,33.49,25.45,11.66,0,22.87-2.58,31.51-5.3V236.21c0-17.12-9.54-26.21-33.94-26.21"/></svg>